{"title":"Da Vincis Demons S02E07 HDTV x264 AAC E-Subs [GWC].mp4","uid":10091399,"size":195169910,"categoryP":"video","categoryS":"tv_shows","magnet":"?xt=urn:btih:5981573d39eccbfe2ec309ad2804f6cdecf81842&amp;dn=Da+Vincis+Demons+S02E07+HDTV+x264+AAC+E-Subs+%5BGWC%5D.mp4&amp;tr=udp%3A%2F%2Ftracker.openbittorrent.com%3A80&amp;tr=udp%3A%2F%2Fopen.demonii.com%3A1337&amp;tr=udp%3A%2F%2Ftracker.coppersurfer.tk%3A6969&amp;tr=udp%3A%2F%2Fexodus.desync.com%3A6969","seeders":1,"leechers":0,"uploader":"canc232","files":1,"time":1399204792,"description":"Da Vincis Demons S02E07 HDTV x264 AAC E-Subs [GWC] \n\n\nSTORYLINE :\nThe series follows the &quot;untold&quot; story of Leonardo Da Vinci: the genius during his early years in Renaissance Florence. As a 25-year old artist, inventor, swordsman, lover, dreamer and idealist, he struggles to live within the confines of his own reality and time as he begins to not only see the future, but invent it. \n\n\nSCREENS : &lt;a href=&quot;\nhttp://i.imgur.com/q0zH7dk.jpg&quot; rel=&quot;nofollow&quot; target=&quot;_NEW&quot;&gt;\nhttp://i.imgur.com/q0zH7dk.jpg&lt;/a&gt; &lt;a href=&quot;\nhttp://i.imgur.com/R9OH69r.jpg&quot; rel=&quot;nofollow&quot; target=&quot;_NEW&quot;&gt;\nhttp://i.imgur.com/R9OH69r.jpg&lt;/a&gt; &lt;a href=&quot;\nhttp://i.imgur.com/8RQopOz.jpg&quot; rel=&quot;nofollow&quot; target=&quot;_NEW&quot;&gt;\nhttp://i.imgur.com/8RQopOz.jpg&lt;/a&gt;\n\n\nMEDIA INFO :\nGeneral \nFormat : MPEG-4 \nFormat profile : Base Media \nFile size : 186 MiB \nDuration : 53mn 33s \nOverall bit rate mode : Variable \nOverall bit rate : 486 Kbps \n\nVideo \nFormat : AVC \nFormat profile : &lt;a class=&quot;__cf_email__&quot; href=&quot;/cdn-cgi/l/email-protection&quot; data-cfemail=&quot;8dc5e4eae5cdc1bea3bd&quot;&gt;[email&amp;#160;protected]&lt;/a&gt;&lt;script cf-hash='f9e31' type=&quot;text/javascript&quot;&gt;\n/* &lt;![CDATA[ */!function(){try{var t=&quot;currentScript&quot;in document?document.currentScript:function(){for(var t=document.getElementsByTagName(&quot;script&quot;),e=t.length;e--;)if(t[e].getAttribute(&quot;cf-hash&quot;))return t[e]}();if(t&amp;&amp;t.previousSibling){var e,r,n,i,c=t.previousSibling,a=c.getAttribute(&quot;data-cfemail&quot;);if(a){for(e=&quot;&quot;,r=parseInt(a.substr(0,2),16),n=2;a.length-n;n+=2)i=parseInt(a.substr(n,2),16)^r,e+=String.fromCharCode(i);e=document.createTextNode(e),c.parentNode.replaceChild(e,c)}}}catch(u){}}();/* ]]&gt; */&lt;/script&gt; \nFormat settings, CABAC : Yes \nFormat settings, ReFrames : 4 frames \nDuration : 53mn 33s \nBit rate : 423 Kbps \nMaximum bit rate : 4 398 Kbps \nWidth : 720 pixels \nHeight : 404 pixels \nDisplay aspect ratio : 16:9 \nFrame rate mode : Constant \nFrame rate : 23.976 fps \nStream size : 162 MiB (87%) \nTitle : Da Vincis Demons S02E07 HDTV x264 AAC E-Subs [GWC] \nWriting library : x264 core\n\nAudio \nFormat : AAC \nFormat profile : HE-AAC / LC \nDuration : 53mn 33s \nBit rate mode : Variable \nBit rate : 60.0 Kbps \nMaximum bit rate : 76.1 Kbps \nChannel(s) : 2 channels \nSampling rate : 48.0 KHz / 24.0 KHz \nStream size : 23.0 MiB (12%) \nLanguage : English \n\nText \nFormat : Timed Text \nTitle : English Subtitle by elderman \nLanguage : English ","torrent":{"xt":"urn:btih:5981573d39eccbfe2ec309ad2804f6cdecf81842","amp;dn":"Da+Vincis+Demons+S02E07+HDTV+x264+AAC+E-Subs+%5BGWC%5D.mp4","amp;tr":["udp%3A%2F%2Ftracker.openbittorrent.com%3A80","udp%3A%2F%2Fopen.demonii.com%3A1337","udp%3A%2F%2Ftracker.coppersurfer.tk%3A6969","udp%3A%2F%2Fexodus.desync.com%3A6969"],"infoHash":"5981573d39eccbfe2ec309ad2804f6cdecf81842","infoHashBuffer":{"type":"Buffer","data":[89,129,87,61,57,236,203,254,46,195,9,173,40,4,246,205,236,248,24,66]},"announce":[],"urlList":[]}}